<?xml version="1.0" encoding="utf-8"?>
<!-- Generator: Adobe Illustrator 22.0.1, SVG Export Plug-In . SVG Version: 6.00 Build 0)  -->
<svg version="1.1" id="Layer_1" xmlns="http://www.w3.org/2000/svg" xmlns:xlink="http://www.w3.org/1999/xlink" x="0px" y="0px"
	 viewBox="0 0 186.3 113.6" style="enable-background:new 0 0 186.3 113.6;" xml:space="preserve">
<style type="text/css">
	.st0{fill:none;}
	.st1{fill:url(#SVGID_1_);}
	.st2{fill:url(#SVGID_2_);}
	.st3{fill:url(#SVGID_3_);}
	.st4{fill:#37526C;}
	.st5{fill:#6A8BAD;}
</style>
<title>ReactGate-alternative</title>
<path class="st0" d="M93.1,14.9"/>
<g>
	
		<linearGradient id="SVGID_1_" gradientUnits="userSpaceOnUse" x1="90.1134" y1="49.3323" x2="113.6917" y2="49.3323" gradientTransform="matrix(1 0 0 -1 0 78.4422)">
		<stop  offset="0" style="stop-color:#4EB893"/>
		<stop  offset="1" style="stop-color:#6FC3A8"/>
	</linearGradient>
	<path class="st1" d="M111.1,32.7c-1.2,0-2.3,0.9-2.5,2.1c-0.5,0-1,0.1-1.3,0.1c-6.2,0.2-11.6-4.1-12.7-10.2
		c0.9-1.1,0.7-2.7-0.4-3.6c-1.1-0.9-2.7-0.7-3.6,0.4c-0.9,1.1-0.7,2.7,0.4,3.6c0.2,0.2,0.5,0.3,0.8,0.4c1.5,7.3,8,12.5,15.5,12.3
		c0.9,0,1.8-0.1,2.6-0.2c1.2,0.7,2.8,0.2,3.5-1.1c0.7-1.2,0.2-2.8-1.1-3.5C112,32.8,111.5,32.7,111.1,32.7z"/>
	
		<linearGradient id="SVGID_2_" gradientUnits="userSpaceOnUse" x1="104.4623" y1="33.9375" x2="80.6823" y2="75.1175" gradientTransform="matrix(1 0 0 -1 0 78.4422)">
		<stop  offset="0" style="stop-color:#4EB893"/>
		<stop  offset="1" style="stop-color:#6FC3A8"/>
	</linearGradient>
	<path class="st2" d="M93.1,0c-9.1-0.1-17.5,5-21.6,13.2c-1.4,2.9-2,6.1-2,9.3c0,3.5,0.6,6.9,1.7,10.2c-0.9,1.1-0.7,2.7,0.5,3.6
		s2.7,0.7,3.6-0.5c0.9-1.1,0.7-2.7-0.5-3.6c-0.3-0.2-0.5-0.3-0.8-0.4c-1-3-1.5-6.1-1.5-9.3c0-2.8,0.5-5.5,1.7-8.1
		c3.6-7.2,11-11.7,19-11.6c11.5,0,20.8,8.8,20.8,19.7c0,3.3-2.7,6-6,6s-6-2.7-6-6c-0.2-4.9-4.3-8.7-9.2-8.6
		c-4.7,0.2-8.4,3.9-8.6,8.6c0,5.6,2.2,11,6.2,15c2.8,2.9,6.3,4.9,10.1,5.9c0.5,1.3,2,2,3.3,1.4c1.3-0.5,2-2,1.4-3.3
		c-0.5-1.3-2-2-3.3-1.4c-0.3,0.1-0.6,0.3-0.8,0.5c-3.3-0.9-6.3-2.6-8.7-5.1c-3.5-3.4-5.4-8.1-5.4-13c0-3.3,2.7-6,6-6s6,2.7,6,6
		c0.2,4.9,4.4,8.7,9.3,8.4c4.6-0.2,8.2-3.9,8.4-8.4C116.8,10.1,106.1,0,93.1,0z"/>
	
		<linearGradient id="SVGID_3_" gradientUnits="userSpaceOnUse" x1="93.7388" y1="33.4311" x2="93.7388" y2="71.4411" gradientTransform="matrix(1 0 0 -1 0 78.4422)">
		<stop  offset="0" style="stop-color:#4EB893"/>
		<stop  offset="1" style="stop-color:#6FC3A8"/>
	</linearGradient>
	<path class="st3" d="M109.3,20.7C108.4,13,101.5,7,93.2,7c-9,0-16.3,7-16.3,15.5c-0.1,4.4,1,8.7,3,12.5c1.4,2.5,3.1,4.9,5.1,6.9
		c0,0.2,0,0.4,0,0.5c0,1.4,1.2,2.6,2.6,2.6c1.4,0,2.6-1.2,2.6-2.6s-1.2-2.6-2.6-2.6c0,0,0,0,0,0c-0.1,0-0.3,0-0.4,0
		c-1.9-1.9-3.5-4-4.7-6.3c-1.8-3.4-2.7-7.2-2.7-11.1c0-7,6-12.6,13.4-12.6c6.8,0,12.5,4.8,13.3,11.1c-1.1,0.9-1.3,2.5-0.4,3.6
		c0.9,1.1,2.5,1.3,3.6,0.4c1.1-0.9,1.3-2.5,0.4-3.6C109.9,21.1,109.6,20.9,109.3,20.7L109.3,20.7z"/>
</g>
<g>
	<path class="st4" d="M19.8,86.2c0,0.4-0.2,0.9-0.5,1.2c-0.3,0.3-0.8,0.5-1.2,0.5c-0.4,0-0.9-0.2-1.2-0.5c-0.3-0.3-0.5-0.7-0.5-1.2
		v-1.1c0.1-1.5-0.1-2.9-0.6-4.3c-0.4-0.9-1-1.6-1.8-2.2c-1-0.6-2.1-0.9-3.2-0.8H3.3v8.4c0,0.4-0.2,0.9-0.5,1.2
		c-0.3,0.3-0.7,0.5-1.2,0.5c-0.4,0-0.9-0.2-1.2-0.5C0.2,87.1,0,86.6,0,86.2V63.9c0-0.4,0.2-0.9,0.5-1.2c0.3-0.3,0.7-0.5,1.2-0.5h8.5
		c3.3,0,5.8,0.7,7.5,2.1c1.6,1.3,2.4,3.2,2.4,5.3c0,1.4-0.4,2.8-1.2,3.9c-0.9,1.3-2.1,2.2-3.6,2.7c1.8,0.5,3.2,2,3.8,3.8
		c0.5,1.4,0.8,3,0.8,4.5L19.8,86.2z M9.9,74.6c1.7,0.1,3.4-0.3,4.9-1.2c1.2-0.7,1.9-2.1,1.9-3.5c0.1-1.3-0.5-2.5-1.4-3.3
		c-1.2-0.8-3-1.2-5.5-1.2H3.3v9.2H9.9z"/>
	<path class="st4" d="M29.9,83.2c1.2,1.1,2.8,1.6,4.5,1.5c1.6,0,3.3-0.3,4.8-1c0.4-0.2,0.7-0.3,1.2-0.3c0.4,0,0.7,0.2,0.9,0.4
		c0.3,0.2,0.4,0.6,0.4,0.9c0,0.6-0.3,1.1-0.8,1.4c-0.5,0.3-1,0.5-1.4,0.7c-0.4,0.2-0.9,0.4-1.4,0.5c-1.3,0.3-2.6,0.5-3.8,0.5
		c-2.6,0.2-5.2-0.8-7.1-2.6c-1.7-1.7-2.5-4.1-2.5-7.3c-0.1-2.4,0.7-4.8,2.1-6.8c1.6-2,4.1-3.1,6.8-3c2.5-0.1,4.9,0.9,6.6,2.8
		c1.5,1.8,2.3,4.1,2.3,6.5c0,0.9-0.7,1.6-1.5,1.7c-0.1,0-0.1,0-0.2,0H28.1C28.2,80.7,28.8,82.1,29.9,83.2z M33.5,71
		c-2.1-0.1-4,1.1-4.8,2.9c-0.4,0.8-0.6,1.6-0.6,2.5h11c0-1.6-0.7-3.1-1.9-4.2C36.1,71.4,34.8,71,33.5,71z"/>
	<path class="st4" d="M47.9,69.5c2-0.9,4.2-1.3,6.5-1.3c2.2-0.1,4.3,0.7,5.9,2.3c1.2,1.4,1.9,3.2,1.8,5v10.5c0,0.4-0.2,0.9-0.5,1.2
		c-0.3,0.3-0.8,0.5-1.2,0.5c-0.9,0-1.7-0.7-1.7-1.6c0,0,0,0,0,0v-1c-0.8,0.8-1.6,1.5-2.6,2c-1.3,0.6-2.8,1-4.3,0.9
		c-1.6,0.1-3.1-0.5-4.3-1.5c-1.2-1-1.8-2.5-1.8-4.1c-0.1-1.7,0.7-3.3,2.1-4.3c1.9-1.3,4.2-1.9,6.5-1.7h4.5V76
		c0.1-1.3-0.3-2.6-1.3-3.5c-1.1-0.8-2.4-1.1-3.8-1c-1.7,0-3.3,0.3-4.9,0.9c-0.2,0.1-0.4,0.1-0.7,0.1c-0.3,0-0.6-0.2-0.8-0.4
		c-0.3-0.3-0.4-0.8-0.4-1.2C46.9,70.2,47.3,69.7,47.9,69.5z M49,81.9c0,2,1.3,3,3.9,3c1.1,0,2.3-0.3,3.2-0.9
		c0.9-0.5,1.8-1.2,2.5-1.9V79h-4c-1.4-0.1-2.8,0.2-4.1,0.7C49.6,80,49,80.9,49,81.9z"/>
	<path class="st4" d="M76.8,84.7c1.4,0,2.8-0.3,4-1c0.4-0.2,0.8-0.4,1.2-0.4c0.4,0,0.7,0.2,0.9,0.5c0.3,0.3,0.4,0.7,0.4,1.2
		c0,0.5-0.4,1-0.8,1.2c-1.8,1.1-3.8,1.7-5.9,1.7c-2.6,0.1-5-0.9-6.9-2.6c-4-4-4-10.5,0-14.5c2.9-2.5,7-3.2,10.6-2
		c0.8,0.3,1.6,0.7,2.3,1.1c0.5,0.2,0.8,0.7,0.8,1.2c0,0.4-0.1,0.8-0.4,1.2c-0.2,0.3-0.5,0.4-0.8,0.5c-0.5,0-0.9-0.1-1.3-0.4
		c-1.2-0.7-2.6-1-4-1c-3.7-0.2-6.9,2.5-7.1,6.2c-0.2,3.7,2.5,6.9,6.2,7.1C76.2,84.8,76.5,84.8,76.8,84.7L76.8,84.7z"/>
	<path class="st4" d="M96.7,84.9c0.5,0,1,0,1.4-0.2c0.3-0.1,0.6-0.2,0.9-0.2c0.3,0,0.7,0.1,0.9,0.4c0.3,0.3,0.4,0.7,0.4,1.1
		c0,0.5-0.3,0.9-0.7,1.1c-0.8,0.4-1.8,0.7-2.7,0.8c-0.7,0-1.4,0-2.1-0.1c-0.6-0.1-1.2-0.3-1.8-0.6c-1.4-0.9-2.2-2.5-2-4.2V71.4h-2.7
		c-0.3,0-0.7-0.2-0.7-0.5c0-0.1,0-0.1,0-0.2c0-0.3,0.1-0.5,0.3-0.6l5-4.9c0.2-0.2,0.4-0.3,0.6-0.3c0.2,0,0.4,0.1,0.5,0.2
		c0.1,0.1,0.2,0.3,0.2,0.5v3h4.2c0.4,0,0.7,0.1,1,0.4c0.3,0.3,0.4,0.6,0.4,1c0,0.8-0.6,1.4-1.3,1.4c0,0,0,0,0,0h-4.2v11.2
		c-0.1,0.8,0.2,1.5,0.8,1.9C95.6,84.8,96.2,84.9,96.7,84.9z"/>
	<path class="st4" d="M118.1,84.6c2.3,0,4.5-0.5,6.5-1.6v-6.7h-6.1c-0.4,0-0.8-0.2-1.1-0.4c-0.3-0.3-0.5-0.7-0.4-1.1
		c0-0.4,0.2-0.8,0.4-1.1c0.3-0.3,0.7-0.4,1.1-0.4h7.3c1,0,1.8,0.8,1.8,1.8v8.4c0,0.5-0.1,1-0.4,1.4c-0.2,0.4-0.6,0.7-1,0.9
		c-2.6,1.3-5.5,2.1-8.5,2.1c-3.5,0.1-6.9-1.2-9.4-3.7c-2.4-2.6-3.7-6-3.6-9.6c-0.1-3.6,1.2-7.1,3.8-9.7c2.4-2.4,5.7-3.8,9.2-3.6
		c1.8,0,3.6,0.2,5.3,0.8c1.4,0.5,2.7,1.1,3.9,1.9c0.5,0.2,0.7,0.7,0.7,1.2c0,0.4-0.1,0.9-0.4,1.2c-0.2,0.3-0.6,0.5-1,0.5
		c-0.3,0-0.6-0.1-0.9-0.2c-2.2-1.3-4.7-2-7.3-2.1c-5.2-0.3-9.6,3.6-9.9,8.8c0,0.4,0,0.9,0,1.3c-0.1,2.7,0.9,5.2,2.7,7.2
		C112.6,83.7,115.3,84.8,118.1,84.6z"/>
	<path class="st4" d="M133.8,69.5c2-0.9,4.2-1.3,6.4-1.3c2.2-0.1,4.3,0.7,5.9,2.3c1.2,1.4,1.9,3.1,1.9,5v10.5c0,0.4-0.2,0.9-0.5,1.2
		c-0.3,0.3-0.8,0.5-1.2,0.5c-0.9,0-1.7-0.7-1.7-1.6c0,0,0,0,0,0v-1c-0.8,0.8-1.7,1.4-2.7,1.9c-1.3,0.6-2.8,1-4.3,0.9
		c-1.6,0.1-3.1-0.5-4.3-1.5c-1.2-1-1.8-2.5-1.8-4.1c-0.1-1.7,0.7-3.3,2.1-4.3c1.9-1.3,4.2-1.9,6.4-1.7h4.5v-0.3
		c0.1-1.3-0.3-2.5-1.2-3.4c-1.1-0.8-2.4-1.1-3.8-1c-1.7,0-3.3,0.3-4.9,0.9c-0.2,0.1-0.4,0.1-0.7,0.1c-0.3,0-0.6-0.2-0.8-0.4
		c-0.3-0.3-0.4-0.8-0.4-1.2C132.9,70.2,133.3,69.7,133.8,69.5z M135,81.9c0,2,1.3,3,3.9,3c1.1,0,2.3-0.3,3.2-0.9
		c0.9-0.5,1.8-1.2,2.5-1.9V79h-4c-1.4-0.1-2.8,0.2-4.1,0.7C135.6,80,135,80.9,135,81.9z"/>
	<path class="st4" d="M160.6,84.9c0.5,0,1,0,1.4-0.2c0.3-0.1,0.6-0.2,0.9-0.2c0.3,0,0.7,0.1,0.9,0.4c0.3,0.3,0.4,0.7,0.4,1.1
		c0,0.5-0.3,0.9-0.8,1.1c-0.8,0.4-1.8,0.7-2.7,0.8c-0.7,0-1.4,0-2.1-0.1c-0.6-0.1-1.2-0.3-1.8-0.6c-1.4-0.9-2.2-2.5-2-4.2V71.4h-2.6
		c-0.3,0-0.7-0.2-0.7-0.5c0-0.1,0-0.1,0-0.2c0-0.2,0.1-0.5,0.3-0.6l5-4.9c0.2-0.2,0.4-0.3,0.6-0.3c0.2,0,0.4,0.1,0.5,0.2
		c0.1,0.1,0.2,0.3,0.2,0.5v3h4.2c0.4,0,0.7,0.1,1,0.4c0.3,0.3,0.4,0.6,0.4,1c0,0.8-0.6,1.4-1.3,1.4c0,0,0,0-0.1,0h-4.2v11.2
		c-0.1,0.8,0.2,1.5,0.9,1.9C159.6,84.8,160.1,84.9,160.6,84.9z"/>
	<path class="st4" d="M173.9,83.2c1.2,1,2.8,1.6,4.4,1.5c1.7,0,3.3-0.3,4.8-1c0.4-0.2,0.7-0.3,1.1-0.3c0.3,0,0.7,0.2,0.9,0.4
		c0.3,0.2,0.4,0.6,0.4,0.9c0,0.6-0.3,1.1-0.8,1.4c-0.5,0.3-1,0.5-1.4,0.7c-0.4,0.2-0.9,0.4-1.4,0.5c-1.3,0.3-2.6,0.5-3.9,0.5
		c-2.6,0.2-5.2-0.8-7.1-2.6c-1.7-1.7-2.5-4.1-2.5-7.3c-0.1-2.4,0.7-4.8,2.1-6.8c1.6-2,4.1-3.2,6.8-3c2.5-0.1,4.9,0.9,6.5,2.8
		c1.5,1.8,2.3,4.1,2.3,6.5c0,0.9-0.7,1.6-1.5,1.7c-0.1,0-0.1,0-0.2,0H172C172.1,80.7,172.8,82.1,173.9,83.2z M177.5,71
		c-2.1-0.1-4,1.1-4.8,2.9c-0.4,0.8-0.6,1.6-0.6,2.5h11c0-1.6-0.8-3.1-2-4.2C180,71.5,178.8,71,177.5,71z"/>
</g>
<g>
	<path class="st5" d="M9.1,109.5H6.1l-0.8,2.2h-1l2.9-7.8h1l2.9,7.8h-1L9.1,109.5z M6.3,108.7h2.5l-1.2-3.5h0L6.3,108.7z"/>
	<path class="st5" d="M16.4,111.8h-0.9v-0.9h0c-0.3,0.6-0.9,1-1.8,1c-1.2,0-1.9-0.8-1.9-2.1v-3.6h0.9v3.5c0,0.9,0.4,1.4,1.3,1.4
		c0.9,0,1.5-0.6,1.5-1.6v-3.3h0.9V111.8z"/>
	<path class="st5" d="M19.1,104.8v1.3h1.1v0.8h-1.1v3.3c0,0.5,0.2,0.7,0.7,0.7c0.1,0,0.3,0,0.4,0v0.8c-0.1,0-0.4,0-0.6,0
		c-1,0-1.4-0.4-1.4-1.5v-3.4h-0.8v-0.8h0.8v-1.3H19.1z"/>
	<path class="st5" d="M21.5,104h0.9v3.1h0c0.3-0.6,0.9-1,1.8-1c1.2,0,2,0.8,2,2.1v3.6h-0.9v-3.4c0-0.9-0.4-1.4-1.3-1.4
		c-0.9,0-1.5,0.6-1.5,1.6v3.3h-0.9V104z"/>
	<path class="st5" d="M32.3,110.2c-0.2,1-1.1,1.7-2.3,1.7c-1.6,0-2.6-1.1-2.6-2.9c0-1.7,1-2.9,2.5-2.9c1.5,0,2.4,1.1,2.4,2.8v0.4h-4
		v0.1c0,1.1,0.6,1.8,1.6,1.8c0.7,0,1.2-0.4,1.4-0.9H32.3z M28.3,108.5h3c0-0.9-0.6-1.6-1.5-1.6C29,106.9,28.4,107.6,28.3,108.5z"/>
	<path class="st5" d="M33.6,106.2h0.9v0.9h0c0.3-0.6,0.9-1,1.8-1c1.2,0,1.9,0.8,1.9,2.1v3.6h-0.9v-3.5c0-0.9-0.4-1.4-1.3-1.4
		c-0.9,0-1.5,0.6-1.5,1.6v3.3h-0.9V106.2z"/>
	<path class="st5" d="M40.9,104.8v1.3H42v0.8h-1.1v3.3c0,0.5,0.2,0.7,0.7,0.7c0.1,0,0.3,0,0.4,0v0.8c-0.1,0-0.4,0-0.6,0
		c-1,0-1.4-0.4-1.4-1.5v-3.4h-0.8v-0.8h0.8v-1.3H40.9z"/>
	<path class="st5" d="M43.2,104.6c0-0.3,0.3-0.6,0.6-0.6c0.3,0,0.6,0.3,0.6,0.6c0,0.3-0.3,0.6-0.6,0.6
		C43.4,105.2,43.2,105,43.2,104.6z M43.3,106.2h0.9v5.6h-0.9V106.2z"/>
	<path class="st5" d="M49.5,108c-0.1-0.6-0.6-1.1-1.4-1.1c-1,0-1.6,0.8-1.6,2.1c0,1.3,0.7,2.1,1.6,2.1c0.8,0,1.3-0.4,1.4-1.1h0.9
		c-0.1,1.1-1.1,1.9-2.3,1.9c-1.5,0-2.6-1.1-2.6-2.9c0-1.8,1-2.9,2.6-2.9c1.4,0,2.2,0.9,2.3,1.9H49.5z"/>
	<path class="st5" d="M51.3,110.2c0-1,0.7-1.6,2-1.6l1.6-0.1V108c0-0.7-0.5-1.1-1.2-1.1c-0.7,0-1.2,0.3-1.3,0.9h-0.9
		c0.1-1,0.9-1.7,2.2-1.7c1.3,0,2.1,0.7,2.1,1.8v3.9H55v-1h0c-0.3,0.6-1,1.1-1.8,1.1C52,111.8,51.3,111.2,51.3,110.2z M54.9,109.6
		v-0.5l-1.5,0.1c-0.8,0-1.2,0.4-1.2,0.9c0,0.5,0.4,0.9,1.1,0.9C54.2,111.1,54.9,110.4,54.9,109.6z"/>
	<path class="st5" d="M58.6,104.8v1.3h1.1v0.8h-1.1v3.3c0,0.5,0.2,0.7,0.7,0.7c0.1,0,0.3,0,0.4,0v0.8c-0.1,0-0.4,0-0.6,0
		c-1,0-1.4-0.4-1.4-1.5v-3.4h-0.8v-0.8h0.8v-1.3H58.6z"/>
	<path class="st5" d="M60.8,104.6c0-0.3,0.3-0.6,0.6-0.6c0.3,0,0.6,0.3,0.6,0.6c0,0.3-0.3,0.6-0.6,0.6
		C61.1,105.2,60.8,105,60.8,104.6z M61,106.2h0.9v5.6H61V106.2z"/>
	<path class="st5" d="M63.2,109c0-1.8,1-2.9,2.6-2.9c1.5,0,2.6,1.1,2.6,2.9c0,1.8-1,2.9-2.6,2.9C64.2,111.8,63.2,110.7,63.2,109z
		 M67.4,109c0-1.3-0.6-2.1-1.6-2.1s-1.6,0.8-1.6,2.1s0.6,2.1,1.6,2.1S67.4,110.3,67.4,109z"/>
	<path class="st5" d="M69.5,106.2h0.9v0.9h0c0.3-0.6,0.9-1,1.8-1c1.2,0,1.9,0.8,1.9,2.1v3.6h-0.9v-3.5c0-0.9-0.4-1.4-1.3-1.4
		c-0.9,0-1.5,0.6-1.5,1.6v3.3h-0.9V106.2z"/>
	<path class="st5" d="M78.4,106.9h-0.8v-0.8h0.8v-0.6c0-1.1,0.5-1.6,1.5-1.6c0.2,0,0.4,0,0.6,0v0.8c-0.1,0-0.3,0-0.4,0
		c-0.5,0-0.7,0.3-0.7,0.8v0.6h1.1v0.8h-1.1v4.8h-0.9V106.9z"/>
	<path class="st5" d="M81.2,109c0-1.8,1-2.9,2.6-2.9c1.5,0,2.6,1.1,2.6,2.9c0,1.8-1,2.9-2.6,2.9C82.3,111.8,81.2,110.7,81.2,109z
		 M85.4,109c0-1.3-0.6-2.1-1.6-2.1s-1.6,0.8-1.6,2.1s0.6,2.1,1.6,2.1S85.4,110.3,85.4,109z"/>
	<path class="st5" d="M87.6,106.2h0.9v0.9h0c0.2-0.6,0.7-1,1.4-1c0.2,0,0.3,0,0.4,0v0.9c-0.1,0-0.3-0.1-0.5-0.1
		c-0.7,0-1.2,0.5-1.2,1.3v3.5h-0.9V106.2z"/>
	<path class="st5" d="M94.9,111.8h-1V104h2.9c1.5,0,2.5,0.9,2.5,2.3c0,1.1-0.6,1.9-1.6,2.2l1.8,3.2h-1.1l-1.7-3.1h-1.9V111.8z
		 M94.9,107.8h1.9c1,0,1.6-0.5,1.6-1.5c0-0.9-0.6-1.5-1.6-1.5h-1.8V107.8z"/>
	<path class="st5" d="M105.3,110.2c-0.2,1-1.1,1.7-2.3,1.7c-1.6,0-2.6-1.1-2.6-2.9c0-1.7,1-2.9,2.5-2.9c1.5,0,2.4,1.1,2.4,2.8v0.4
		h-4v0.1c0,1.1,0.6,1.8,1.6,1.8c0.7,0,1.2-0.4,1.4-0.9H105.3z M101.4,108.5h3c0-0.9-0.6-1.6-1.5-1.6
		C102,106.9,101.4,107.6,101.4,108.5z"/>
	<path class="st5" d="M106.4,110.2c0-1,0.7-1.6,2-1.6l1.6-0.1V108c0-0.7-0.5-1.1-1.2-1.1c-0.7,0-1.2,0.3-1.3,0.9h-0.9
		c0.1-1,0.9-1.7,2.2-1.7c1.3,0,2.1,0.7,2.1,1.8v3.9H110v-1h0c-0.3,0.6-1,1.1-1.8,1.1C107.1,111.8,106.4,111.2,106.4,110.2z
		 M110,109.6v-0.5l-1.5,0.1c-0.8,0-1.2,0.4-1.2,0.9c0,0.5,0.4,0.9,1.1,0.9C109.3,111.1,110,110.4,110,109.6z"/>
	<path class="st5" d="M116.1,108c-0.1-0.6-0.6-1.1-1.4-1.1c-1,0-1.6,0.8-1.6,2.1c0,1.3,0.7,2.1,1.6,2.1c0.8,0,1.3-0.4,1.4-1.1h0.9
		c-0.1,1.1-1.1,1.9-2.3,1.9c-1.5,0-2.6-1.1-2.6-2.9c0-1.8,1-2.9,2.6-2.9c1.4,0,2.2,0.9,2.3,1.9H116.1z"/>
	<path class="st5" d="M119.4,104.8v1.3h1.1v0.8h-1.1v3.3c0,0.5,0.2,0.7,0.7,0.7c0.1,0,0.3,0,0.4,0v0.8c-0.1,0-0.4,0-0.6,0
		c-1,0-1.4-0.4-1.4-1.5v-3.4h-0.8v-0.8h0.8v-1.3H119.4z"/>
	<path class="st5" d="M124.1,110.2c0-1,0.7-1.6,2-1.6l1.6-0.1V108c0-0.7-0.5-1.1-1.2-1.1c-0.7,0-1.2,0.3-1.3,0.9h-0.9
		c0.1-1,0.9-1.7,2.2-1.7c1.3,0,2.1,0.7,2.1,1.8v3.9h-0.9v-1h0c-0.3,0.6-1,1.1-1.8,1.1C124.8,111.8,124.1,111.2,124.1,110.2z
		 M127.7,109.6v-0.5l-1.5,0.1c-0.8,0-1.2,0.4-1.2,0.9c0,0.5,0.4,0.9,1.1,0.9C127,111.1,127.7,110.4,127.7,109.6z"/>
	<path class="st5" d="M135.2,109c0,1.8-1,2.9-2.4,2.9c-0.8,0-1.4-0.4-1.8-1h0v2.8h-0.9v-7.4h0.9v0.9h0c0.3-0.6,1-1,1.8-1
		C134.2,106.1,135.2,107.2,135.2,109z M134.2,109c0-1.3-0.6-2.1-1.6-2.1c-1,0-1.6,0.8-1.6,2.1c0,1.2,0.6,2.1,1.6,2.1
		C133.6,111,134.2,110.2,134.2,109z"/>
	<path class="st5" d="M141.5,109c0,1.8-1,2.9-2.4,2.9c-0.8,0-1.4-0.4-1.8-1h0v2.8h-0.9v-7.4h0.9v0.9h0c0.3-0.6,1-1,1.8-1
		C140.5,106.1,141.5,107.2,141.5,109z M140.5,109c0-1.3-0.6-2.1-1.6-2.1c-1,0-1.6,0.8-1.6,2.1c0,1.2,0.6,2.1,1.6,2.1
		C139.9,111,140.5,110.2,140.5,109z"/>
	<path class="st5" d="M142.8,104h0.9v7.8h-0.9V104z"/>
	<path class="st5" d="M145.2,104.6c0-0.3,0.3-0.6,0.6-0.6c0.3,0,0.6,0.3,0.6,0.6c0,0.3-0.3,0.6-0.6,0.6
		C145.4,105.2,145.2,105,145.2,104.6z M145.3,106.2h0.9v5.6h-0.9V106.2z"/>
	<path class="st5" d="M151.5,108c-0.1-0.6-0.6-1.1-1.4-1.1c-1,0-1.6,0.8-1.6,2.1c0,1.3,0.7,2.1,1.6,2.1c0.8,0,1.3-0.4,1.4-1.1h0.9
		c-0.1,1.1-1.1,1.9-2.3,1.9c-1.5,0-2.6-1.1-2.6-2.9c0-1.8,1-2.9,2.6-2.9c1.4,0,2.2,0.9,2.3,1.9H151.5z"/>
	<path class="st5" d="M153.3,110.2c0-1,0.7-1.6,2-1.6l1.6-0.1V108c0-0.7-0.5-1.1-1.2-1.1c-0.7,0-1.2,0.3-1.3,0.9h-0.9
		c0.1-1,0.9-1.7,2.2-1.7c1.3,0,2.1,0.7,2.1,1.8v3.9H157v-1h0c-0.3,0.6-1,1.1-1.8,1.1C154.1,111.8,153.3,111.2,153.3,110.2z
		 M156.9,109.6v-0.5l-1.5,0.1c-0.8,0-1.2,0.4-1.2,0.9c0,0.5,0.4,0.9,1.1,0.9C156.3,111.1,156.9,110.4,156.9,109.6z"/>
	<path class="st5" d="M160.6,104.8v1.3h1.1v0.8h-1.1v3.3c0,0.5,0.2,0.7,0.7,0.7c0.1,0,0.3,0,0.4,0v0.8c-0.1,0-0.4,0-0.6,0
		c-1,0-1.4-0.4-1.4-1.5v-3.4h-0.8v-0.8h0.8v-1.3H160.6z"/>
	<path class="st5" d="M162.9,104.6c0-0.3,0.3-0.6,0.6-0.6c0.3,0,0.6,0.3,0.6,0.6c0,0.3-0.3,0.6-0.6,0.6
		C163.1,105.2,162.9,105,162.9,104.6z M163,106.2h0.9v5.6H163V106.2z"/>
	<path class="st5" d="M165.2,109c0-1.8,1-2.9,2.6-2.9c1.5,0,2.6,1.1,2.6,2.9c0,1.8-1,2.9-2.6,2.9C166.2,111.8,165.2,110.7,165.2,109
		z M169.4,109c0-1.3-0.6-2.1-1.6-2.1s-1.6,0.8-1.6,2.1s0.6,2.1,1.6,2.1S169.4,110.3,169.4,109z"/>
	<path class="st5" d="M171.6,106.2h0.9v0.9h0c0.3-0.6,0.9-1,1.8-1c1.2,0,1.9,0.8,1.9,2.1v3.6h-0.9v-3.5c0-0.9-0.4-1.4-1.3-1.4
		c-0.9,0-1.5,0.6-1.5,1.6v3.3h-0.9V106.2z"/>
	<path class="st5" d="M179.6,106.1c1.2,0,2,0.7,2,1.6h-0.9c-0.1-0.5-0.5-0.9-1.2-0.9c-0.7,0-1.1,0.3-1.1,0.8c0,0.4,0.3,0.6,0.9,0.8
		l0.9,0.2c1.1,0.3,1.5,0.7,1.5,1.5c0,1-0.9,1.7-2.2,1.7c-1.2,0-2.1-0.7-2.2-1.7h0.9c0.1,0.6,0.5,0.9,1.3,0.9c0.8,0,1.2-0.3,1.2-0.8
		c0-0.4-0.2-0.6-0.9-0.8l-1-0.3c-1-0.3-1.5-0.8-1.5-1.5C177.5,106.8,178.4,106.1,179.6,106.1z"/>
</g>
</svg>
