<svg id="Layer_1" data-name="Layer 1" xmlns="http://www.w3.org/2000/svg" xmlns:xlink="http://www.w3.org/1999/xlink" viewBox="0 0 186.3 87.84"><defs><linearGradient id="linear-gradient" x1="90.13" y1="38.66" x2="113.71" y2="38.66" gradientUnits="userSpaceOnUse"><stop offset="0" stop-color="#4eb893"/><stop offset="1" stop-color="#6fc3a8"/></linearGradient><linearGradient id="linear-gradient-2" x1="104.49" y1="54.06" x2="80.71" y2="12.88" xlink:href="#linear-gradient"/><linearGradient id="linear-gradient-3" x1="93.76" y1="54.56" x2="93.76" y2="16.56" xlink:href="#linear-gradient"/></defs><title>ReactGate-alternative</title><path d="M98.48,24.48" transform="translate(0 -9.56)" fill="none"/><path d="M111.15,42.25a2.58,2.58,0,0,0-2.52,2.06c-.51,0-1,.06-1.3.06A12.42,12.42,0,0,1,94.66,34.13a2.55,2.55,0,1,0-2.8.8,15.32,15.32,0,0,0,15.47,12.32,20.37,20.37,0,0,0,2.62-.18,2.56,2.56,0,1,0,1.2-4.82Z" transform="translate(0 -9.56)" fill="url(#linear-gradient)"/><path d="M93.08,9.56a23.89,23.89,0,0,0-21.6,13.21,21.31,21.31,0,0,0-2,9.31,31.66,31.66,0,0,0,1.67,10.15,2.56,2.56,0,1,0,2.75-.89,28.42,28.42,0,0,1-1.53-9.26A18.51,18.51,0,0,1,74.08,24a21,21,0,0,1,19-11.59c11.49,0,20.84,8.82,20.84,19.66a6,6,0,0,1-12,0,8.86,8.86,0,0,0-17.71,0,21.06,21.06,0,0,0,6.22,15A21.75,21.75,0,0,0,100.57,53a2.57,2.57,0,1,0,.6-2.81,19,19,0,0,1-8.68-5.09,18.16,18.16,0,0,1-5.38-13,6,6,0,0,1,12,0,8.87,8.87,0,0,0,17.72,0C116.79,19.67,106.15,9.56,93.08,9.56Z" transform="translate(0 -9.56)" fill="url(#linear-gradient-2)"/><path d="M109.36,30.3c-.92-7.72-7.82-13.74-16.18-13.74-9,0-16.3,7-16.3,15.5a25.56,25.56,0,0,0,3,12.5,29,29,0,0,0,5.13,6.91A3.07,3.07,0,0,0,85,52a2.57,2.57,0,1,0,2.56-2.57,2.22,2.22,0,0,0-.45,0,26.34,26.34,0,0,1-4.69-6.33,22.77,22.77,0,0,1-2.66-11.09c0-7,6-12.62,13.42-12.62,6.84,0,12.49,4.84,13.3,11.07a2.57,2.57,0,1,0,2.88-.21Z" transform="translate(0 -9.56)" fill="url(#linear-gradient-3)"/><path d="M19.78,95.76a1.58,1.58,0,0,1-.47,1.16,1.63,1.63,0,0,1-1.2.48,1.6,1.6,0,0,1-1.18-.46,1.57,1.57,0,0,1-.46-1.18V94.67a10.84,10.84,0,0,0-.65-4.33A5.72,5.72,0,0,0,14,88.14a5.44,5.44,0,0,0-3.2-.82H3.31v8.44a1.53,1.53,0,0,1-.49,1.16,1.63,1.63,0,0,1-1.18.48,1.58,1.58,0,0,1-1.17-.48A1.58,1.58,0,0,1,0,95.76V73.5a1.66,1.66,0,0,1,.47-1.18,1.59,1.59,0,0,1,1.17-.49h8.47q5,0,7.53,2.11A6.59,6.59,0,0,1,20,79.21a7.13,7.13,0,0,1-1.18,3.93,6.78,6.78,0,0,1-3.58,2.66A5.58,5.58,0,0,1,19,89.58a12.9,12.9,0,0,1,.76,4.51ZM9.89,84.2A9.11,9.11,0,0,0,14.82,83a3.93,3.93,0,0,0,1.87-3.53,3.83,3.83,0,0,0-1.45-3.27Q13.49,75,9.71,75H3.31V84.2Z" transform="translate(0 -9.56)" fill="#37526c"/><path d="M29.94,92.76a6.3,6.3,0,0,0,4.46,1.48,10.68,10.68,0,0,0,4.78-1,2.61,2.61,0,0,1,1.15-.34,1.39,1.39,0,0,1,.93.41,1.24,1.24,0,0,1,.44.93,1.45,1.45,0,0,1-.79,1.39c-.54.29-1,.53-1.43.72a9.67,9.67,0,0,1-1.38.52,13.9,13.9,0,0,1-3.85.49,9.52,9.52,0,0,1-7.09-2.56q-2.52-2.57-2.52-7.27a10.69,10.69,0,0,1,2.11-6.79,8.08,8.08,0,0,1,6.75-3,8.2,8.2,0,0,1,6.57,2.82,9.68,9.68,0,0,1,2.26,6.53,1.61,1.61,0,0,1-1.7,1.67H28.05A6.3,6.3,0,0,0,29.94,92.76ZM33.5,80.59a5.08,5.08,0,0,0-4.82,2.93A5.86,5.86,0,0,0,28.05,86H39a5.66,5.66,0,0,0-1.92-4.16A5.34,5.34,0,0,0,33.5,80.59Z" transform="translate(0 -9.56)" fill="#37526c"/><path d="M47.86,79.07a16.24,16.24,0,0,1,6.45-1.34A7.52,7.52,0,0,1,60.18,80,7.13,7.13,0,0,1,62,85v10.5a1.6,1.6,0,0,1-.5,1.19,1.68,1.68,0,0,1-1.21.48,1.66,1.66,0,0,1-1.67-1.67v-1A10.28,10.28,0,0,1,56,96.5a9,9,0,0,1-4.28.9,6.23,6.23,0,0,1-4.26-1.49,5.16,5.16,0,0,1-1.79-4.08,5.09,5.09,0,0,1,2.08-4.3,10.54,10.54,0,0,1,6.45-1.71h4.49v-.3A4.46,4.46,0,0,0,57.43,82a5.67,5.67,0,0,0-3.75-1,16.22,16.22,0,0,0-4.93.89,2.76,2.76,0,0,1-.67.07,1.18,1.18,0,0,1-.78-.39,1.61,1.61,0,0,1-.41-1.21A1.33,1.33,0,0,1,47.86,79.07ZM49,91.46q0,3,3.93,3a6.48,6.48,0,0,0,3.25-.86,9.41,9.41,0,0,0,2.46-1.93V88.53h-4a10.18,10.18,0,0,0-4.12.67A2.3,2.3,0,0,0,49,91.46Z" transform="translate(0 -9.56)" fill="#37526c"/><path d="M76.83,94.24a8.07,8.07,0,0,0,4-1A2.57,2.57,0,0,1,82,92.83a1.19,1.19,0,0,1,.92.48,1.71,1.71,0,0,1,.41,1.15,1.52,1.52,0,0,1-.85,1.23,10.69,10.69,0,0,1-5.94,1.71,9.86,9.86,0,0,1-6.93-2.6,10.3,10.3,0,0,1,0-14.47,10.92,10.92,0,0,1,10.59-2,13.4,13.4,0,0,1,2.28,1.13,1.52,1.52,0,0,1,.85,1.23,1.71,1.71,0,0,1-.41,1.15,1.11,1.11,0,0,1-.81.48,2.63,2.63,0,0,1-1.3-.37,8.07,8.07,0,0,0-4-1,6.69,6.69,0,1,0,0,13.35Z" transform="translate(0 -9.56)" fill="#37526c"/><path d="M96.66,94.43a4.3,4.3,0,0,0,1.41-.17,2.51,2.51,0,0,1,.92-.17,1.34,1.34,0,0,1,.91.37,1.45,1.45,0,0,1,.41,1.12,1.12,1.12,0,0,1-.74,1.07,6.71,6.71,0,0,1-2.73.75,16.22,16.22,0,0,1-2.06-.12A4.29,4.29,0,0,1,93,96.65a4.39,4.39,0,0,1-2-4.15V81H88.33a.63.63,0,0,1-.71-.71.84.84,0,0,1,.34-.63l5-4.93a1,1,0,0,1,.63-.33.63.63,0,0,1,.5.22.73.73,0,0,1,.21.52v3h4.19a1.38,1.38,0,0,1,1,.41,1.39,1.39,0,0,1,.41,1A1.4,1.4,0,0,1,98.53,81H94.34V92.2a2.06,2.06,0,0,0,.85,1.93A2.83,2.83,0,0,0,96.66,94.43Z" transform="translate(0 -9.56)" fill="#37526c"/><path d="M118.08,94.2a13.4,13.4,0,0,0,6.5-1.63V85.86h-6.12a1.47,1.47,0,0,1-1.08-.45,1.44,1.44,0,0,1-.45-1.07,1.47,1.47,0,0,1,.45-1.08,1.5,1.5,0,0,1,1.08-.44h7.3a1.78,1.78,0,0,1,1.78,1.78V93a2.53,2.53,0,0,1-.39,1.39,2.36,2.36,0,0,1-1,.91,18.86,18.86,0,0,1-8.49,2.08,12.55,12.55,0,0,1-9.42-3.71,13.25,13.25,0,0,1-3.6-9.57,13.28,13.28,0,0,1,3.75-9.72,12.3,12.3,0,0,1,9.16-3.64,15.85,15.85,0,0,1,5.32.78,19.79,19.79,0,0,1,3.92,1.89,1.28,1.28,0,0,1,.74,1.17,1.81,1.81,0,0,1-.41,1.23,1.29,1.29,0,0,1-1,.46,2,2,0,0,1-.94-.19A14.44,14.44,0,0,0,117.9,74,9.38,9.38,0,0,0,108,84.12a10,10,0,0,0,2.68,7.19A9.72,9.72,0,0,0,118.08,94.2Z" transform="translate(0 -9.56)" fill="#37526c"/><path d="M133.84,79.07a16.24,16.24,0,0,1,6.45-1.34,7.48,7.48,0,0,1,5.86,2.3A7.09,7.09,0,0,1,148,85v10.5a1.6,1.6,0,0,1-.5,1.19,1.7,1.7,0,0,1-1.21.48,1.66,1.66,0,0,1-1.67-1.67v-1a10.28,10.28,0,0,1-2.69,1.92,9,9,0,0,1-4.28.9,6.28,6.28,0,0,1-4.27-1.49,5.19,5.19,0,0,1-1.78-4.08,5.07,5.07,0,0,1,2.08-4.3,10.54,10.54,0,0,1,6.45-1.71h4.49v-.3A4.46,4.46,0,0,0,143.41,82a5.67,5.67,0,0,0-3.75-1,16.22,16.22,0,0,0-4.93.89,2.76,2.76,0,0,1-.67.07,1.16,1.16,0,0,1-.78-.39,1.61,1.61,0,0,1-.41-1.21A1.31,1.31,0,0,1,133.84,79.07ZM135,91.46q0,3,3.93,3a6.5,6.5,0,0,0,3.25-.86,9.41,9.41,0,0,0,2.46-1.93V88.53h-4a10.18,10.18,0,0,0-4.12.67A2.3,2.3,0,0,0,135,91.46Z" transform="translate(0 -9.56)" fill="#37526c"/><path d="M160.64,94.43a4.22,4.22,0,0,0,1.41-.17,2.52,2.52,0,0,1,.93-.17,1.38,1.38,0,0,1,.91.37,1.45,1.45,0,0,1,.41,1.12,1.11,1.11,0,0,1-.75,1.07,6.63,6.63,0,0,1-2.72.75,16.11,16.11,0,0,1-2.06-.12,4.29,4.29,0,0,1-1.78-.63,4.39,4.39,0,0,1-2-4.15V81h-2.64a.62.62,0,0,1-.7-.71.86.86,0,0,1,.33-.63L157,74.73a.93.93,0,0,1,.63-.33.65.65,0,0,1,.5.22.77.77,0,0,1,.2.52v3h4.19a1.38,1.38,0,0,1,1,.41,1.39,1.39,0,0,1,.41,1A1.4,1.4,0,0,1,162.51,81h-4.19V92.2a2.07,2.07,0,0,0,.86,1.93A2.82,2.82,0,0,0,160.64,94.43Z" transform="translate(0 -9.56)" fill="#37526c"/><path d="M173.91,92.76a6.28,6.28,0,0,0,4.45,1.48,10.73,10.73,0,0,0,4.79-1,2.54,2.54,0,0,1,1.15-.34,1.37,1.37,0,0,1,.92.41,1.22,1.22,0,0,1,.45.93,1.46,1.46,0,0,1-.8,1.39c-.53.29-1,.53-1.43.72a10,10,0,0,1-1.37.52,14,14,0,0,1-3.86.49,9.51,9.51,0,0,1-7.08-2.56q-2.53-2.57-2.53-7.27a10.69,10.69,0,0,1,2.12-6.79,8.05,8.05,0,0,1,6.75-3A8.2,8.2,0,0,1,184,80.55a9.68,9.68,0,0,1,2.26,6.53,1.61,1.61,0,0,1-1.71,1.67H172A6.25,6.25,0,0,0,173.91,92.76Zm3.56-12.17a5.07,5.07,0,0,0-4.82,2.93A5.86,5.86,0,0,0,172,86H183A5.63,5.63,0,0,0,181,81.85,5.33,5.33,0,0,0,177.47,80.59Z" transform="translate(0 -9.56)" fill="#37526c"/></svg>