<?xml version="1.0" encoding="UTF-8"?>
<svg width="422px" height="198px" viewBox="0 0 422 198" version="1.1" xmlns="http://www.w3.org/2000/svg" xmlns:xlink="http://www.w3.org/1999/xlink">
    <!-- Generator: Sketch 49.3 (51167) - http://www.bohemiancoding.com/sketch -->
    <title>reactgate_logo_h</title>
    <desc>Created with Sketch.</desc>
    <defs>
        <linearGradient x1="0.0439013762%" y1="50.0642399%" x2="99.9889414%" y2="50.0642399%" id="linearGradient-1">
            <stop stop-color="#42BB93" offset="0%"></stop>
            <stop stop-color="#67C4A8" offset="100%"></stop>
        </linearGradient>
        <linearGradient x1="4524.59229%" y1="5951%" x2="2374.11119%" y2="1832%" id="linearGradient-2">
            <stop stop-color="#42BB93" offset="0%"></stop>
            <stop stop-color="#67C4A8" offset="100%"></stop>
        </linearGradient>
        <linearGradient x1="3925%" y1="6000%" x2="3925%" y2="2200%" id="linearGradient-3">
            <stop stop-color="#42BB93" offset="0%"></stop>
            <stop stop-color="#67C4A8" offset="100%"></stop>
        </linearGradient>
    </defs>
    <g id="Page-2" stroke="none" stroke-width="1" fill="none" fill-rule="evenodd">
        <g id="reactgate-copy-2" transform="translate(-85.000000, -45.000000)" fill-rule="nonzero">
            <g id="reactgate_logo_h" transform="translate(85.000000, 44.000000)">
                <g id="Group" transform="translate(155.100000, 0.000000)">
                    <path d="M95.3741764,75.6086957 C92.6091406,75.6094489 90.2293688,77.563333 89.6893228,80.2761788 C88.5342331,80.2761788 87.4244409,80.4121249 86.7223276,80.4121249 C72.7147312,80.9104804 60.4776332,71.0164837 58.026274,57.2106552 C58.8991251,56.1865397 59.3806403,54.8859399 59.3852031,53.5401102 C59.3993948,50.5671798 57.1726544,48.0609422 54.2197415,47.7262873 C51.2668287,47.3916325 48.5360898,49.3360369 47.8851339,52.2368025 C47.234178,55.1375682 48.8720636,58.0630959 51.6846047,59.0232701 C54.9671022,75.6486636 69.7903665,87.4582375 86.7223276,86.9375383 C88.7070343,86.9294217 90.6891494,86.7931926 92.6563181,86.5296999 C94.7871652,87.663919 97.3975104,87.3588963 99.2096975,85.7639279 C101.021885,84.1689595 101.6568,81.6177161 100.80368,79.3589259 C99.9505592,77.1001357 97.7878769,75.6063422 95.3741764,75.6086957 Z" id="Shape" fill="url(#linearGradient-1)"></path>
                    <path d="M54.4477606,1.5407226 C33.7798771,1.36673893 14.8199687,12.9915934 5.59425827,31.4941825 C2.51128014,38.0851295 0.962521003,45.2896788 1.06449449,52.5658298 C1.06567387,60.3939302 2.34323227,68.1694241 4.84684724,75.586038 C4.06036121,76.5881834 3.63002518,77.8238907 3.62381102,79.0979792 C3.59214602,82.1083744 5.85952685,84.6465902 8.8533654,84.9521954 C11.847204,85.2578005 14.5803076,83.2300244 15.1570767,80.2752723 C15.7338457,77.3205203 13.9640956,74.4130965 11.0752724,73.569504 C8.76702749,66.8081707 7.59604056,59.7105901 7.61000315,52.5658298 C7.48838261,46.2622765 8.78896239,40.0124029 11.4150047,34.2810778 C19.5620405,18.0181046 36.2649846,7.82532006 54.4477606,8.02082058 C80.4712535,8.02082058 101.647899,28.004899 101.647899,52.5658298 C101.647899,60.073926 95.5637661,66.1604405 88.0586079,66.1604405 C80.5534497,66.1604405 74.4693168,60.073926 74.4693165,52.5658298 C73.9602177,41.849368 65.1268218,33.4225103 54.402463,33.4225103 C43.6781042,33.4225103 34.8447083,41.849368 34.3356094,52.5658298 C34.2919783,65.3293948 39.3761369,77.575339 48.4458236,86.5523576 C54.7323779,93.0194943 62.6783887,97.629044 71.411726,99.8750765 C72.3678016,102.25015 74.7625262,103.72179 77.3124373,103.501264 C79.8623483,103.280739 81.9690851,101.419797 82.5035334,98.9158182 C83.0379816,96.4118392 81.8747279,93.8524053 79.637223,92.6092558 C77.399718,91.3661063 74.6130134,91.730958 72.7706551,93.508267 C65.3194852,91.4876825 58.5462919,87.5051133 53.156778,81.9755052 C45.3038095,74.1939639 40.9121201,63.5779208 40.9717134,52.5205144 C40.9717134,45.012418 47.0558464,38.9259032 54.5610047,38.9259032 C62.0661631,38.9259032 68.1502961,45.012418 68.1502961,52.5205144 C68.5137577,63.3388775 77.3855892,71.9208956 88.2058252,71.9208956 C99.0260612,71.9208956 107.897893,63.3388775 108.261354,52.5205144 C108.14811,24.4476424 84.0497669,1.5407226 54.4477606,1.5407226 Z" id="Shape" fill="url(#linearGradient-2)"></path>
                    <path d="M91.3200378,48.5554195 C89.2363465,30.9957134 73.540715,17.4011023 54.6742488,17.4011023 C34.2903118,17.4011023 17.7793228,33.2614819 17.7793228,52.5205144 C17.602393,62.3853594 19.9408262,72.1326452 24.5739685,80.8426209 C27.6469816,86.6104917 31.5630408,91.8874044 36.1928126,96.4990814 C36.1203781,96.8953318 36.0824877,97.2971278 36.0795685,97.6999388 C36.0795863,100.057191 37.5002288,102.181896 39.6780745,103.081846 C41.8559203,103.981796 44.3612942,103.479436 46.0242196,101.809361 C47.687145,100.139286 48.1795373,97.6309922 47.2714558,95.455819 C46.3633743,93.2806458 44.2339777,91.8677415 41.8776661,91.8769137 C41.5350362,91.8810508 41.1936502,91.9189975 40.8584693,91.9902021 C36.6259793,87.763159 33.045989,82.9294256 30.2361732,77.6478873 C26.1534072,69.9127023 24.1036478,61.2660366 24.2795339,52.5205144 C24.2795339,36.6601347 37.8688252,23.9265156 54.6742488,23.9265156 C70.1886898,23.9265156 82.9626236,34.8928353 84.797178,49.0312309 C82.7928433,50.6176632 82.0574437,53.3264997 82.9842058,55.7092944 C83.9109678,58.0920891 86.2830623,59.5913531 88.8321031,59.4054128 C91.381144,59.2194725 93.5107465,57.3918312 94.0821879,54.8997497 C94.6536294,52.4076683 93.5332128,49.8342047 91.3200378,48.5554195 Z" id="Shape" fill="url(#linearGradient-3)"></path>
                </g>
                <g id="Group-3" transform="translate(0.000000, 140.845070)" fill="#37516B">
                    <path d="M44.6240106,53.852179 C44.6462247,54.8141271 44.2688321,55.7422473 43.5816979,56.415534 C42.881256,57.1177902 41.9238956,57.5024543 40.9324866,57.479978 C39.9561045,57.5304945 39.0040888,57.1645311 38.3127597,56.4729314 C37.6214306,55.7813316 37.2556104,54.8289433 37.3061071,53.852179 L37.3061071,51.4408874 C37.4802335,48.181667 36.9850899,44.9213119 35.8512124,41.860891 C34.974419,39.9196816 33.6134958,38.236563 31.8991102,36.9731378 C29.812081,35.6584972 27.3699458,35.021169 24.9069295,35.1483766 L8.14306762,35.1483766 L8.14306762,53.852179 C8.15934599,54.8216972 7.76493625,55.7528686 7.05732527,56.415534 C6.35666669,57.1039924 5.41190873,57.4867301 4.42982878,57.479978 C3.46551221,57.4939092 2.53827516,57.1087194 1.86747684,56.415534 C1.16557561,55.7506287 0.778821377,54.8188967 0.803449338,53.852179 L0.803449338,4.51845632 C0.782672556,3.53974014 1.16784593,2.59608915 1.86747684,1.9116546 C2.52988293,1.20376661 3.46068992,0.809202471 4.42982878,0.825487213 L23.2131714,0.825487213 C30.5527897,0.825487213 36.1045523,2.38232713 39.8684591,5.49600697 C43.3324994,8.36914352 45.2726688,12.6841012 45.123452,17.183168 C45.1230079,20.2753987 44.2088765,23.2985035 42.4959555,25.8725071 C40.600897,28.6802315 37.8048643,30.7570027 34.5700364,31.7595343 C38.6031491,32.946601 41.7541163,36.1069893 42.9302525,40.1447466 C44.084369,43.3483901 44.6579401,46.7323128 44.6240106,50.1374865 L44.6240106,53.852179 Z M22.7354448,28.2186287 C26.5323281,28.3805192 30.2972177,27.4615265 33.5928683,25.5683803 C36.298669,23.9143655 37.8884665,20.9167155 37.7404041,17.7479751 C37.9299957,14.9473678 36.7277768,12.2331901 34.5266067,10.4923769 C31.9497782,8.66761573 27.867387,7.75523513 22.279433,7.75523513 L8.14306762,7.75523513 L8.14306762,28.2186287 L22.7354448,28.2186287 Z" id="Shape"></path>
                    <path d="M68.167608,47.791365 C70.8495181,50.0789436 74.3125961,51.238945 77.8307149,51.0281438 C81.4130461,51.1285512 84.9687401,50.3843909 88.2104118,48.855809 C88.9855686,48.4306079 89.8465268,48.1855842 90.729334,48.1389385 C91.4851747,48.1668849 92.2009677,48.4860045 92.7271,49.0295958 C93.3300976,49.5201339 93.6873585,50.2508199 93.7042681,51.0281438 C93.7765215,52.2961763 93.0957941,53.4879156 91.9670803,54.0694124 C90.8161934,54.6776662 89.7955956,55.1990265 88.8618572,55.6334935 C87.8991616,56.0823072 86.904848,56.4598586 85.8869232,56.7631076 C83.1550585,57.4991677 80.3338585,57.8501278 77.5049922,57.8058282 C71.8322772,58.1571759 66.2671693,56.1441458 62.1308806,52.2446512 C58.4610714,48.5516821 56.6370243,43.2729086 56.6370243,36.4517775 C56.4469319,31.1539702 58.0710757,25.9500773 61.2405718,21.7016244 C64.771479,17.2677461 70.2421835,14.8353701 75.8980936,15.18462 C81.3399883,14.9359021 86.5962863,17.1929132 90.164748,21.3106041 C93.4839742,25.2770943 95.2305071,30.3254679 95.0723034,35.4959502 C95.088637,36.4590152 94.7214581,37.3890448 94.0517056,38.0810285 C93.3431099,38.7956773 92.3639636,39.1748501 91.3590646,39.1237492 L64.0635019,39.1237492 C64.3220651,42.4188634 65.7827882,45.5038192 68.167608,47.791365 Z M75.8980936,21.3757741 C71.4410747,21.1748594 67.3050944,23.6900392 65.4315373,27.740715 C64.5837188,29.4135193 64.1165328,31.2533203 64.0635019,33.1281053 L87.8195445,33.1281053 C87.7671258,29.6636771 86.2431007,26.3853455 83.6285791,24.112916 C81.4720282,22.2872852 78.7224851,21.3137514 75.8980936,21.3757741 Z" id="Shape"></path>
                    <path d="M109.057635,18.0738253 C113.485593,16.1547361 118.259784,15.1640365 123.085427,15.1628967 C127.853801,14.883707 132.504806,16.7099015 135.810327,20.1592667 C138.510926,23.1191151 139.951996,27.0154247 139.827574,31.0209405 L139.827574,53.8304556 C139.855116,54.8021307 139.458826,55.7377413 138.741831,56.3938106 C138.05192,57.0851233 137.112474,57.4688805 136.13605,57.4582547 C135.165213,57.4730233 134.230939,57.0881716 133.551983,56.3938106 C132.864849,55.7205239 132.487456,54.7924038 132.50967,53.8304556 L132.50967,51.6581208 C130.786079,53.3862852 128.799933,54.8306537 126.624947,55.9376203 C123.720119,57.3215301 120.52468,57.9847129 117.309277,57.8709983 C113.93358,57.9862503 110.635897,56.8401279 108.058752,54.6559428 C105.49726,52.4380208 104.076348,49.1798248 104.19351,45.792817 C104.046038,42.1190857 105.730005,38.6114809 108.688483,36.4300541 C112.845626,33.7216658 117.764998,32.4265873 122.716274,32.737085 L132.46624,32.737085 L132.46624,32.0853846 C132.75392,29.2533276 131.776367,26.4387796 129.795314,24.3953195 C127.452464,22.6769818 124.569658,21.85961 121.673962,22.0926446 C118.020925,22.1890896 114.403822,22.8410092 110.946827,24.0260226 C110.478287,24.1439089 109.996772,24.2022972 109.513647,24.1998093 C108.860401,24.148542 108.252835,23.8446399 107.819889,23.3525988 C107.166468,22.6408736 106.843233,21.6865625 106.92958,20.7240737 C106.9826,19.4699101 107.844883,18.3960351 109.057635,18.0738253 Z M111.554843,44.9238831 C111.554843,49.2685526 114.399488,51.4408874 120.088778,51.4408874 C122.563086,51.4608366 124.998383,50.8236634 127.146103,49.5944028 C129.146001,48.4919293 130.956733,47.0765115 132.50967,45.4017967 L132.50967,38.6023889 L123.715157,38.6023889 C120.672342,38.4770363 117.635838,38.9722318 114.790355,40.0578532 C112.785898,40.8248694 111.487213,42.7780198 111.554843,44.9238831 Z" id="Shape"></path>
                    <path d="M173.975418,51.0281438 C177.008993,51.0607713 180.000021,50.3127216 182.661357,48.855809 C183.440687,48.3731032 184.32989,48.0965199 185.245423,48.0520451 C186.040989,48.0784541 186.78252,48.4613295 187.264904,49.0947658 C187.816896,49.7528083 188.123847,50.5818994 188.133498,51.4408874 C188.021638,52.5856041 187.322401,53.5896081 186.287736,54.0911358 C182.453903,56.6385023 177.948029,57.9847431 173.345687,57.9578917 C167.779655,58.1049768 162.374875,56.0793387 158.275583,52.3098213 C153.919909,48.2743916 151.540898,42.5387303 151.761129,36.6038409 C151.540898,30.6689515 153.919909,24.9332902 158.275583,20.8978605 C162.374875,17.1283431 167.779655,15.102705 173.345687,15.2497901 C176.043861,15.1593548 178.73436,15.5870534 181.271606,16.5097443 C182.992016,17.1342819 184.649689,17.9198029 186.222592,18.8558658 C187.257256,19.3573934 187.956493,20.3613975 188.068354,21.5061142 C188.095016,22.4172493 187.785872,23.3063865 187.19976,24.0042992 C186.786194,24.5945472 186.136086,24.9752472 185.419142,25.0470199 C184.424683,25.0267202 183.452315,24.749861 182.596212,24.243256 C179.934876,22.7863434 176.943848,22.0382937 173.910273,22.0709213 C169.895206,21.8498286 165.966889,23.2960152 163.05285,26.0680172 C160.401069,28.9086228 159.007415,32.6995938 159.187607,36.5821175 C159.001574,40.4615466 160.387247,44.2521029 163.031135,47.0962178 C165.977089,49.8672074 169.940329,51.291071 173.975418,51.0281438 Z" id="Shape"></path>
                    <path d="M218.866461,51.4408874 C219.899184,51.4930737 220.933477,51.3756611 221.928254,51.0933138 C222.562198,50.8357743 223.241939,50.7101208 223.92602,50.7240169 C224.664888,50.7207397 225.375128,51.0096315 225.902071,51.5277808 C226.530493,52.1668016 226.854679,53.0448206 226.79238,53.9390724 C226.81697,54.9854821 226.169812,55.9303531 225.185481,56.2851939 C223.343204,57.2289828 221.323857,57.7765659 219.257328,57.8927216 C217.762953,57.8966358 216.26953,57.8168587 214.784069,57.6537648 C213.410045,57.4904083 212.089652,57.0228953 210.918827,56.2851939 C207.885116,54.3318022 206.206301,50.8384999 206.575857,47.2482813 L206.575857,22.2447081 L200.864852,22.2447081 C200.443031,22.3109915 200.014787,22.1731679 199.710724,21.8732696 C199.40666,21.5733713 199.26283,21.1469578 199.323098,20.7240737 C199.352837,20.1805551 199.623575,19.6786965 200.061403,19.3555028 L210.918827,8.64589239 C211.285697,8.23944525 211.804669,8.00345674 212.352006,7.99419196 C212.765352,7.99196746 213.160131,8.16573826 213.437749,8.47210561 C213.730049,8.7754863 213.893491,9.18035758 213.893761,9.60171969 L213.893761,16.118724 L222.992282,16.118724 C224.175625,16.0201591 225.313756,16.5959685 225.935718,17.607884 C226.557681,18.6197994 226.557681,19.8956961 225.935718,20.9076115 C225.313756,21.9195269 224.175625,22.4953364 222.992282,22.3967715 L213.872046,22.3967715 L213.872046,46.5965808 C213.676222,48.2263875 214.383715,49.8334417 215.717808,50.7891869 C216.696442,51.266193 217.778965,51.490251 218.866461,51.4408874 Z" id="Shape"></path>
                    <path d="M267.03806,50.9412504 C271.959557,50.9731627 276.808618,49.7548171 281.130995,47.4003447 L281.130995,32.802255 L267.841509,32.802255 C266.962556,32.8140593 266.116148,32.4699682 265.494579,31.8481554 C264.873009,31.2263426 264.529053,30.3796031 264.540852,29.5003062 C264.51783,28.6254583 264.864751,27.7814786 265.496306,27.175908 C266.109157,26.5394678 266.958242,26.185544 267.841509,26.1983573 L283.693347,26.1983573 C284.722231,26.1925747 285.710958,26.5974097 286.440535,27.3231948 C287.170112,28.0489799 287.580321,29.0358109 287.580305,30.0651132 L287.580305,48.356172 C287.612651,49.4459886 287.31766,50.5204795 286.733426,51.4408874 C286.218805,52.2984075 285.463719,52.9858052 284.561941,53.417712 C278.851189,56.3576215 272.526788,57.9058456 266.104321,57.9361683 C258.457119,58.2423009 251.033681,55.3174882 245.648936,49.8768063 C240.367741,44.2724767 237.552057,36.784521 237.831591,29.0875626 C237.559671,21.248426 240.483086,13.6351634 245.931229,7.99419196 C251.180875,2.71900772 258.385348,-0.137157665 265.822028,0.108616739 C269.741258,0.00940910857 273.648518,0.582502335 277.374327,1.80303786 C280.353929,2.81777136 283.209434,4.16592242 285.886547,5.82185719 C286.873449,6.28121582 287.501496,7.27459796 287.493446,8.36348887 C287.533318,9.32648208 287.216264,10.2702806 286.603137,11.0137373 C286.072756,11.6648802 285.271013,12.0338262 284.431652,12.0130113 C283.72337,12.039538 283.018231,11.9058803 282.368742,11.621991 C277.604531,8.73195878 272.153296,7.1717102 266.582048,7.1035347 C260.708583,6.75958414 254.973357,8.97317108 250.852809,13.1744443 C246.732261,17.3757176 244.628954,23.1542275 245.084349,29.0223925 C244.871229,34.7982158 246.956233,40.4228971 250.882214,44.6632029 C255.12222,48.9709244 261.003121,51.2562009 267.03806,50.9412504 Z" id="Shape"></path>
                    <path d="M303.794048,18.0738253 C308.222006,16.1547361 312.996196,15.1640365 317.821839,15.1628967 C322.590214,14.883707 327.241219,16.7099015 330.54674,20.1592667 C333.239408,23.1239417 334.679248,27.0169247 334.563986,31.0209405 L334.563986,53.8304556 C334.591529,54.8021307 334.195239,55.7377413 333.478244,56.3938106 C332.788333,57.0851233 331.848887,57.4688805 330.872462,57.4582547 C329.901626,57.4730233 328.967352,57.0881716 328.288396,56.3938106 C327.601261,55.7205239 327.223869,54.7924038 327.246083,53.8304556 L327.246083,51.6581208 C325.529356,53.3517261 323.558449,54.7663505 321.404789,55.850727 C318.499961,57.2346367 315.304522,57.8978195 312.08912,57.7841049 C308.712787,57.9035647 305.41363,56.7569298 302.838595,54.5690494 C300.277103,52.3511274 298.856191,49.0929314 298.973352,45.7059236 C298.82588,42.0321923 300.509848,38.5245875 303.468326,36.3431607 C307.625469,33.6347724 312.544841,32.3396939 317.496117,32.6501916 L327.246083,32.6501916 L327.246083,31.9984912 C327.533763,29.1664343 326.556209,26.3518862 324.575157,24.3084261 C322.232307,22.5900884 319.349501,21.7727166 316.453804,22.0057512 C312.800768,22.1021962 309.183664,22.7541158 305.72667,23.9391292 C305.257883,24.0556828 304.776536,24.1140509 304.29349,24.112916 C303.640244,24.0616486 303.032677,23.7577465 302.599732,23.2657054 C301.94631,22.5539802 301.623075,21.5996691 301.709423,20.6371803 C301.792818,19.4278121 302.627406,18.4015627 303.794048,18.0738253 Z M306.291256,44.9238831 C306.291256,49.2685526 309.135901,51.4408874 314.825191,51.4408874 C317.299499,51.4608366 319.734796,50.8236634 321.882516,49.5944028 C323.882414,48.4919293 325.693146,47.0765115 327.246083,45.4017967 L327.246083,38.6023889 L318.45157,38.6023889 C315.408608,38.4745955 312.371615,38.9698708 309.526768,40.0578532 C307.522311,40.8248694 306.223626,42.7780198 306.291256,44.9238831 Z" id="Shape"></path>
                    <path d="M363.818902,51.4408874 C364.851625,51.4930737 365.885918,51.3756611 366.880695,51.0933138 C367.514639,50.8357743 368.19438,50.7101208 368.878461,50.7240169 C369.617329,50.7207397 370.327569,51.0096315 370.854512,51.5277808 C371.482933,52.1668016 371.80712,53.0448206 371.744821,53.9390724 C371.769411,54.9854821 371.122253,55.9303531 370.137922,56.2851939 C368.297532,57.2338548 366.277129,57.7817242 364.209769,57.8927216 C362.715394,57.8966358 361.221971,57.8168587 359.73651,57.6537648 C358.362485,57.4904083 357.042093,57.0228953 355.871268,56.2851939 C352.837557,54.3318022 351.158741,50.8384999 351.528298,47.2482813 L351.528298,22.2447081 L345.817293,22.2447081 C345.395472,22.3109915 344.967228,22.1731679 344.663165,21.8732696 C344.359101,21.5733713 344.215271,21.1469578 344.275539,20.7240737 C344.305278,20.1805551 344.576016,19.6786965 345.013844,19.3555028 L355.871268,8.64589239 C356.220545,8.23924387 356.707807,7.97617454 357.239303,7.90729857 C357.652648,7.90507407 358.047427,8.07884487 358.325045,8.38521221 C358.617345,8.68859291 358.780787,9.09346419 358.781057,9.5148263 L358.781057,16.0318306 L367.879578,16.0318306 C369.062921,15.9332657 370.201052,16.5090751 370.823015,17.5209906 C371.444977,18.532906 371.444977,19.8088027 370.823015,20.8207181 C370.201052,21.8326336 369.062921,22.408443 367.879578,22.3098781 L358.781057,22.3098781 L358.781057,46.5965808 C358.585233,48.2263875 359.292726,49.8334417 360.626819,50.7891869 C361.618499,51.2733744 362.716873,51.4976201 363.818902,51.4408874 Z" id="Shape"></path>
                    <path d="M394.2899,47.791365 C396.980728,50.0782888 400.450156,51.2378115 403.974721,51.0281438 C407.556834,51.1261118 411.111969,50.3820686 414.354418,48.855809 C415.123041,48.4337242 415.976233,48.1887994 416.851626,48.1389385 C417.613039,48.1701486 418.334471,48.488324 418.871106,49.0295958 C419.461359,49.527871 419.80932,50.2557113 419.82656,51.0281438 C419.908529,52.2925986 419.235417,53.485922 418.111087,54.0694124 C416.938485,54.6776662 415.939602,55.1990265 415.005864,55.6334935 C414.037179,56.0857906 413.035384,56.4634265 412.009215,56.7631076 C409.284796,57.4993962 406.47073,57.8503782 403.648999,57.8058282 C397.969288,58.1606592 392.396134,56.1475621 388.253172,52.2446512 C384.605078,48.5516821 382.781031,43.2729086 382.781031,36.4517775 C382.584696,31.1565493 384.201099,25.9529109 387.362863,21.7016244 C390.909824,17.2885659 396.369165,14.861242 402.020385,15.18462 C407.46228,14.9359021 412.718578,17.1929132 416.28704,21.3106041 C419.610216,25.2663459 421.357652,30.3095935 421.194595,35.4742268 C421.219145,36.4346279 420.859598,37.3651264 420.195712,38.0593052 C419.485585,38.7716095 418.507524,39.1503619 417.503071,39.1020259 L390.185794,39.1020259 C390.449085,42.4021687 391.908629,45.4923588 394.2899,47.791365 Z M402.020385,21.3757741 C397.563366,21.1748594 393.427386,23.6900392 391.553829,27.740715 C390.70601,29.4135193 390.238824,31.2533203 390.185794,33.1281053 L413.941836,33.1281053 C413.889444,29.6683318 412.374549,26.3926668 409.772585,24.112916 C407.609375,22.2840477 404.851879,21.3104328 402.020385,21.3757741 Z" id="Shape"></path>
                </g>
            </g>
        </g>
    </g>
</svg>