<?xml version="1.0" encoding="UTF-8"?>
<svg width="205px" height="37px" viewBox="0 0 205 37" version="1.1" xmlns="http://www.w3.org/2000/svg" xmlns:xlink="http://www.w3.org/1999/xlink">
    <!-- Generator: Sketch 49.3 (51167) - http://www.bohemiancoding.com/sketch -->
    <title>reactgate_logo</title>
    <desc>Created with Sketch.</desc>
    <defs>
        <linearGradient x1="0.0439013762%" y1="50.0642399%" x2="99.9889414%" y2="50.0642399%" id="linearGradient-1">
            <stop stop-color="#42BB93" offset="0%"></stop>
            <stop stop-color="#67C4A8" offset="100%"></stop>
        </linearGradient>
        <linearGradient x1="4524.59229%" y1="5951%" x2="2374.11119%" y2="1832%" id="linearGradient-2">
            <stop stop-color="#42BB93" offset="0%"></stop>
            <stop stop-color="#67C4A8" offset="100%"></stop>
        </linearGradient>
        <linearGradient x1="3925%" y1="6000%" x2="3925%" y2="2200%" id="linearGradient-3">
            <stop stop-color="#42BB93" offset="0%"></stop>
            <stop stop-color="#67C4A8" offset="100%"></stop>
        </linearGradient>
    </defs>
    <g id="Page-2" stroke="none" stroke-width="1" fill="none" fill-rule="evenodd">
        <g id="reactgate-copy" transform="translate(-33.000000, -44.000000)" fill-rule="nonzero">
            <g id="reactgate_logo" transform="translate(33.000000, 44.000000)">
                <path d="M33.871087,26.841087 C32.889115,26.8413544 32.0439653,27.5349832 31.8521739,28.4980435 C31.4419565,28.4980435 31.0478261,28.5463043 30.7984783,28.5463043 C25.8238349,28.7232205 21.4779645,25.2108517 20.6073913,20.3097826 C20.9173748,19.9462216 21.0883795,19.4845087 21.09,19.0067391 C21.09504,17.9513488 20.3042377,17.0616345 19.2555433,16.942832 C18.2068488,16.8240295 17.237057,17.5142931 17.0058772,18.5440649 C16.7746974,19.5738367 17.3563744,20.6123991 18.3552174,20.9532609 C19.5209602,26.8552756 24.785279,31.0476743 30.7984783,30.8628261 C31.503325,30.8599447 32.2072513,30.8115834 32.9058696,30.7180435 C33.6626164,31.1206912 34.5896517,31.0124082 35.23323,30.4461944 C35.8768083,29.8799806 36.1022916,28.9742892 35.7993152,28.1724187 C35.4963389,27.3705482 34.7282861,26.8402515 33.871087,26.841087 Z" id="Shape" fill="url(#linearGradient-1)"></path>
                <path d="M19.3365217,0.546956522 C11.9965508,0.485192321 5.26314844,4.61201567 1.98673913,11.1804348 C0.891853448,13.520221 0.34182872,16.077836 0.378043478,18.6608696 C0.378462321,21.4398452 0.8321731,24.2001455 1.72130435,26.8330435 C1.44199251,27.1888051 1.28916341,27.6274812 1.28695652,28.0797826 C1.27571104,29.1484729 2.08094634,30.0495395 3.14417509,30.1580294 C4.20740383,30.2665192 5.17803545,29.5466587 5.38286863,28.4977217 C5.5877018,27.4487847 4.95919455,26.4166493 3.93326087,26.1171739 C3.11351313,23.7169006 2.69765004,21.1972595 2.7026087,18.6608696 C2.6594165,16.4231082 3.12130307,14.204403 4.05391304,12.1697826 C6.94724295,6.39642713 12.8791094,2.77798862 19.3365217,2.8473913 C28.5784783,2.8473913 36.0991304,9.94173913 36.0991304,18.6608696 C36.0991304,21.3262437 33.9384176,23.4869564 31.2730435,23.4869564 C28.6076693,23.4869564 26.4469566,21.3262437 26.4469565,18.6608696 C26.2661557,14.8565256 23.1290725,11.8649911 19.3204348,11.8649911 C15.511797,11.8649911 12.3747139,14.8565256 12.193913,18.6608696 C12.1784179,23.1919351 13.9840008,27.5392454 17.205,30.726087 C19.4376004,33.0219205 22.2595385,34.6583106 25.361087,35.4556522 C25.7006267,36.2988032 26.5510867,36.8212353 27.4566595,36.7429488 C28.3622323,36.6646624 29.1104166,36.004028 29.30022,35.1151154 C29.4900234,34.2262029 29.0769067,33.3176039 28.2822815,32.8762858 C27.4876563,32.4349678 26.4979889,32.5644901 25.8436957,33.1954348 C23.1974948,32.4781273 20.7920699,31.0643152 18.8780435,29.1013043 C16.0891483,26.3388572 14.5294883,22.5701619 14.5506522,18.6447826 C14.5506522,15.9794084 16.7113649,13.8186957 19.3767391,13.8186957 C22.0421134,13.8186957 24.2028261,15.9794084 24.2028261,18.6447826 C24.3319055,22.4853015 27.4826386,25.5319179 31.3253261,25.5319179 C35.1680136,25.5319179 38.3187467,22.4853015 38.4478261,18.6447826 C38.4076087,8.67891304 29.8493478,0.546956522 19.3365217,0.546956522 Z" id="Shape" fill="url(#linearGradient-2)"></path>
                <path d="M32.4313043,17.2371739 C31.6913043,11.0034783 26.1171739,6.1773913 19.4169565,6.1773913 C12.1778261,6.1773913 6.31413043,11.8078261 6.31413043,18.6447826 C6.25129577,22.1468026 7.08176451,25.607089 8.72717391,28.6991304 C9.81852062,30.7467246 11.2092659,32.6200286 12.8534783,34.2571739 C12.827754,34.3978428 12.8142976,34.5404804 12.8132609,34.6834783 C12.8132672,35.5203027 13.3177927,36.2745732 14.0912306,36.5940554 C14.8646685,36.9135376 15.7544244,36.7351997 16.344994,36.1423232 C16.9355637,35.5494466 17.1104314,34.6590022 16.7879362,33.8868158 C16.4654411,33.1146293 15.7092094,32.6130482 14.8723913,32.6163043 C14.7507101,32.6177731 14.6294706,32.6312441 14.5104348,32.6565217 C13.0073126,31.1559214 11.7359186,29.4399461 10.7380435,27.565 C9.28809415,24.8190093 8.56014469,21.749443 8.6226087,18.6447826 C8.6226087,13.0143478 13.4486957,8.49391304 19.4169565,8.49391304 C24.9267391,8.49391304 29.4632609,12.3869565 30.1147826,17.406087 C29.4029653,17.9692705 29.1417962,18.9309074 29.4709255,19.7767995 C29.8000549,20.6226916 30.642478,21.1549304 31.5477418,21.0889215 C32.4530055,21.0229127 33.2093104,20.3741001 33.4122515,19.4894112 C33.6151926,18.6047222 33.2172891,17.6911427 32.4313043,17.2371739 Z" id="Shape" fill="url(#linearGradient-3)"></path>
                <g id="Group-3" transform="translate(54.695652, 9.652174)" fill="#37516B">
                    <path d="M15.8477252,19.1175235 C15.8556144,19.4590151 15.7215875,19.7884978 15.4775594,20.0275146 C15.2288052,20.2768155 14.8888092,20.4133713 14.5367212,20.4053922 C14.1899699,20.4233256 13.851872,20.2934085 13.6063541,20.0478906 C13.3608362,19.8023727 13.2309192,19.4642749 13.2488525,19.1175235 L13.2488525,18.261515 C13.3106916,17.1044918 13.1348468,15.9470657 12.7321627,14.8606163 C12.4207792,14.171487 11.9374623,13.5739799 11.3286172,13.1254639 C10.5874318,12.6587665 9.72013441,12.432515 8.84542134,12.4776737 L2.89192066,12.4776737 L2.89192066,19.1175235 C2.89770175,19.4617025 2.75763148,19.7922683 2.50633124,20.0275146 C2.25750007,20.2719173 1.9219797,20.4077892 1.57320484,20.4053922 C1.23073844,20.4103378 0.901440432,20.2735954 0.663213805,20.0275146 C0.413941324,19.7914732 0.276589823,19.4607083 0.285336172,19.1175235 L0.285336172,1.60405199 C0.277957527,1.25660775 0.414747602,0.921611647 0.663213805,0.678637382 C0.898460024,0.427337146 1.22902586,0.287266877 1.57320484,0.293047961 L8.24390184,0.293047961 C10.8504863,0.293047961 12.8221336,0.845726132 14.1588436,1.95108247 C15.3890593,2.97104595 16.078089,4.50285592 16.0250964,6.10002465 C16.0249386,7.19776655 15.700295,8.27096873 15.09197,9.18474003 C14.4189608,10.1814822 13.4259806,10.918736 12.2771672,11.2746347 C13.7094827,11.6960434 14.8285139,12.8179812 15.2462057,14.251385 C15.6560775,15.3886785 15.8597749,16.5899711 15.8477252,17.7988077 L15.8477252,19.1175235 Z M8.07424249,10.0176132 C9.42266374,10.0750843 10.7597227,9.74884192 11.9301367,9.07677499 C12.891072,8.48959977 13.4556711,7.425434 13.4030883,6.30053115 C13.4704197,5.30631557 13.0434649,4.34278248 12.2617436,3.72479381 C11.3466114,3.07700359 9.89679516,2.75310847 7.91229494,2.75310847 L2.89192066,2.75310847 L2.89192066,10.0176132 L8.07424249,10.0176132 Z" id="Shape"></path>
                    <path d="M24.2089742,16.9659346 C25.161425,17.778025 26.391299,18.1898255 27.6407201,18.114991 C28.9129455,18.1506357 30.175711,17.8864588 31.326955,17.3438122 C31.6022434,17.1928658 31.9080032,17.1058824 32.2215224,17.0893232 C32.4899509,17.0992441 32.7441569,17.2125316 32.931007,17.4055065 C33.1451549,17.5796475 33.2720322,17.8390411 33.2780374,18.114991 C33.3036975,18.5651426 33.0619446,18.98821 32.6610944,19.1946414 C32.2523696,19.4105715 31.8899155,19.5956544 31.5583086,19.7498902 C31.2164179,19.9092191 30.8632984,20.0432498 30.5017936,20.1509032 C29.531602,20.4122045 28.5296839,20.5367954 27.5250433,20.521069 C25.5104411,20.6457974 23.5340544,19.9311718 22.0650971,18.5468512 C20.7618048,17.2358472 20.1140146,15.3618826 20.1140146,12.940381 C20.0465054,11.0596594 20.6233021,9.21227745 21.7489137,7.70407665 C23.0028765,6.13004986 24.9457368,5.26655637 26.9543709,5.39054012 C28.8869998,5.30224524 30.7537161,6.10348419 32.0210159,7.56526446 C33.1998025,8.97336848 33.8200644,10.7655411 33.7638801,12.6010623 C33.7696808,12.9429504 33.6392813,13.2731109 33.4014261,13.5187651 C33.1497761,13.7724655 32.8020431,13.9070718 32.4451643,13.888931 L22.7514462,13.888931 C22.8432721,15.0586965 23.3620318,16.1538558 24.2089742,16.9659346 Z M26.9543709,7.58839982 C25.3715098,7.5170751 23.902662,8.40996391 23.2372889,9.84795383 C22.9361955,10.4417993 22.7702796,11.0949287 22.7514462,11.7604774 L31.1881428,11.7604774 C31.1695268,10.5306054 30.6282861,9.36679766 29.6997676,8.56008516 C28.9338923,7.91198626 27.9574224,7.56638174 26.9543709,7.58839982 Z" id="Shape"></path>
                    <path d="M38.7306165,6.41620798 C40.3031569,5.7349313 41.998658,5.38323294 43.7124319,5.38282833 C45.4058674,5.28371597 47.0576206,5.93201503 48.2315399,7.15653967 C49.1906279,8.20728588 49.7024082,9.59047578 49.6582208,11.0124339 L49.6582208,19.1098117 C49.6680023,19.4547564 49.5272643,19.7868982 49.2726313,20.0198028 C49.0276168,20.2652188 48.693983,20.4014526 48.3472167,20.3976804 C48.0024349,20.4029233 47.6706377,20.2663009 47.4295139,20.0198028 C47.1854858,19.780786 47.0514589,19.4513033 47.0593481,19.1098117 L47.0593481,18.3386329 C46.4472336,18.9521313 45.7418759,19.4648821 44.9694534,19.8578552 C43.9378358,20.3491432 42.8030108,20.5845731 41.6610961,20.5442044 C40.4622544,20.5851188 39.2911187,20.1782454 38.3758743,19.4028597 C37.4661885,18.6154974 36.9615674,17.4588378 37.0031759,16.25645 C36.9508029,14.9522754 37.5488454,13.7070757 38.5995161,12.9326692 C40.0758796,11.9711913 41.8229405,11.5114385 43.5813315,11.6216652 L47.0439245,11.6216652 L47.0439245,11.3903115 C47.1460907,10.3849313 46.7989234,9.38576676 46.0953745,8.66033841 C45.2633371,8.05032854 44.2395403,7.76016154 43.2111656,7.84288884 C41.9138301,7.87712682 40.6292556,8.10855826 39.4015421,8.52923801 C39.2351454,8.57108765 39.0641406,8.5918155 38.8925641,8.59093232 C38.660571,8.57273242 38.4448004,8.46484715 38.2910446,8.29017257 C38.0589892,8.03751012 37.9441959,7.6987297 37.9748613,7.35704617 C37.9936905,6.91181807 38.2999208,6.53059248 38.7306165,6.41620798 Z M39.6174722,15.9479785 C39.6174722,17.4903362 40.6277165,18.261515 42.6482051,18.261515 C43.5269283,18.268597 44.3917974,18.0424005 45.1545363,17.606013 C45.864778,17.2146349 46.5078397,16.7121616 47.0593481,16.1176378 L47.0593481,13.7038481 L43.9360737,13.7038481 C42.8554513,13.6593479 41.7770708,13.8351423 40.7665287,14.2205379 C40.054668,14.4928287 39.5934543,15.186197 39.6174722,15.9479785 Z" id="Shape"></path>
                    <path d="M61.785451,18.114991 C62.8627918,18.1265738 63.9250223,17.8610162 64.8701664,17.3438122 C65.1469368,17.1724516 65.4627277,17.0742646 65.7878692,17.058476 C66.0704057,17.0678512 66.3337522,17.203772 66.5050656,17.4286419 C66.7010994,17.6622469 66.8101096,17.9565743 66.8135371,18.261515 C66.7738112,18.6678895 66.5254848,19.0243109 66.1580351,19.2023532 C64.7964916,20.1066683 63.1962802,20.5845838 61.5618092,20.5750515 C59.5850941,20.6272668 57.6656462,19.9081652 56.209828,18.5699866 C54.6629582,17.137409 53.8180786,15.1012492 53.8962915,12.9943635 C53.8180786,10.8874778 54.6629582,8.85131801 56.209828,7.41874048 C57.6656462,6.08056179 59.5850941,5.36146027 61.5618092,5.41367548 C62.5200359,5.38157094 63.4755367,5.53340395 64.376612,5.86095921 C64.9875964,6.08267007 65.5763008,6.36153004 66.1348997,6.69383236 C66.5023494,6.87187467 66.7506758,7.22829612 66.7904017,7.63467055 C66.7998705,7.95812349 66.6900814,8.2737672 66.4819302,8.52152622 C66.3350571,8.73106427 66.1041784,8.86621275 65.8495636,8.89169207 C65.4963924,8.88448567 65.1510667,8.78620065 64.8470311,8.60635589 C63.901887,8.0891519 62.8396565,7.82359427 61.7623157,7.83517705 C60.3364088,7.75668916 58.9413104,8.27008539 57.9064215,9.25414612 C56.9646709,10.2625611 56.4697299,11.6083558 56.5337231,12.9866517 C56.4676555,14.363849 56.9597621,15.7094965 57.8987097,16.7191573 C58.9449327,17.7028586 60.3524337,18.2083302 61.785451,18.114991 Z" id="Shape"></path>
                    <path d="M77.7280098,18.261515 C78.09477,18.2800412 78.4620881,18.2383597 78.815372,18.1381264 C79.0405102,18.0466999 79.2819127,18.0020929 79.5248565,18.007026 C79.7872575,18.0058626 80.0394913,18.1084192 80.2266293,18.2923622 C80.4498062,18.5192146 80.5649375,18.8309113 80.5428126,19.1483707 C80.5515457,19.5198461 80.3217146,19.8552753 79.9721403,19.9812438 C79.3178759,20.3162889 78.6007271,20.5106809 77.866822,20.5519162 C77.3361111,20.5533057 76.8057386,20.5249848 76.2781936,20.4670865 C75.7902238,20.4090949 75.3213009,20.2431278 74.9054953,19.9812438 C73.8281062,19.2877898 73.2318936,18.0476675 73.3631376,16.7731398 L73.3631376,7.89687136 L71.3349372,7.89687136 C71.185132,7.92040199 71.033046,7.8714746 70.9250612,7.7650107 C70.8170764,7.6585468 70.7659967,7.50717003 70.7874002,7.35704617 C70.7979615,7.16409705 70.8941113,6.98593726 71.049601,6.8712035 L74.9054953,3.0692918 C75.0357854,2.92500306 75.2200924,2.84122714 75.4144733,2.83793814 C75.5612683,2.83714845 75.7014697,2.89883708 75.8000627,3.00759749 C75.9038699,3.11529764 75.9619144,3.25902694 75.9620103,3.40861049 L75.9620103,5.72214702 L79.1932496,5.72214702 C79.613501,5.68715648 80.0176955,5.89156883 80.2385787,6.25079881 C80.4594619,6.6100288 80.4594619,7.0629721 80.2385787,7.42220208 C80.0176955,7.78143207 79.613501,7.98584441 79.1932496,7.95085388 L75.9542985,7.95085388 L75.9542985,16.5417862 C75.8847537,17.1203676 76.136012,17.6908718 76.6098005,18.0301614 C76.9573516,18.1994985 77.3417978,18.2790391 77.7280098,18.261515 Z" id="Shape"></path>
                    <path d="M94.835622,18.0841439 C96.5834375,18.0954728 98.305528,17.6629601 99.8405727,16.8271224 L99.8405727,11.6448005 L95.1209582,11.6448005 C94.8088078,11.648991 94.5082153,11.5268387 94.2874717,11.3060952 C94.0667282,11.0853516 93.9445759,10.7847591 93.9487664,10.4726087 C93.9405902,10.1620377 94.0637954,9.86242492 94.2880851,9.64744733 C94.5057324,9.42151106 94.8072755,9.29586811 95.1209582,9.30041685 L100.750564,9.30041685 C101.11596,9.29836403 101.467096,9.44208044 101.726197,9.69973415 C101.985298,9.95738786 102.13098,10.3077129 102.130974,10.6731152 L102.130974,17.1664411 C102.142461,17.5533259 102.037698,17.9347702 101.830214,18.261515 C101.647452,18.5659347 101.379292,18.8099609 101.059035,18.9632878 C99.0309247,20.0069556 96.7848833,20.5565752 94.5040151,20.5673398 C91.7881956,20.6760168 89.1518436,19.6377083 87.2395104,17.7062662 C85.3639524,15.7167292 84.3639934,13.058505 84.4632666,10.3260847 C84.3666974,7.54319122 85.4049159,4.84048299 87.3397637,2.83793814 C89.2041176,0.965247742 91.7627067,-0.0486909711 94.4037619,0.0385589422 C95.795633,0.00334023354 97.1832534,0.206788329 98.5064333,0.64007844 C99.5646062,1.00030883 100.578707,1.47890246 101.529454,2.0667593 C101.879942,2.22983162 102.102986,2.58248228 102.100127,2.96903855 C102.114287,3.31090114 102.001689,3.64594962 101.783943,3.90987674 C101.595584,4.14103246 101.310854,4.27200832 101.012765,4.264619 C100.761226,4.27403599 100.510804,4.22658752 100.280145,4.12580681 C98.5881879,3.09984537 96.6522419,2.54595712 94.6736745,2.52175482 C92.5877781,2.39965237 90.5509759,3.18547573 89.0876087,4.67692774 C87.6242416,6.16837975 86.8772753,8.21975074 87.0390039,10.3029494 C86.9633167,12.3533666 87.7037826,14.3501285 89.0980515,15.855437 C90.603843,17.3846782 92.6923801,18.1959513 94.835622,18.0841439 Z" id="Shape"></path>
                    <path d="M107.889106,6.41620798 C109.461646,5.7349313 111.157147,5.38323294 112.870921,5.38282833 C114.564357,5.28371597 116.21611,5.93201503 117.390029,7.15653967 C118.346301,8.20899929 118.857644,9.59100826 118.81671,11.0124339 L118.81671,19.1098117 C118.826492,19.4547564 118.685754,19.7868982 118.431121,20.0198028 C118.186106,20.2652188 117.852473,20.4014526 117.505706,20.3976804 C117.160924,20.4029233 116.829127,20.2663009 116.588003,20.0198028 C116.343975,19.780786 116.209948,19.4513033 116.217838,19.1098117 L116.217838,18.3386329 C115.608161,18.9398628 114.908215,19.4420544 114.143366,19.8270081 C113.111749,20.318296 111.976924,20.5537259 110.835009,20.5133572 C109.635942,20.5557655 108.464283,20.1487101 107.549787,19.3720126 C106.640102,18.5846502 106.13548,17.4279906 106.177089,16.2256029 C106.124716,14.9214283 106.722758,13.6762286 107.773429,12.9018221 C109.249793,11.9403442 110.996854,11.4805913 112.755245,11.590818 L116.217838,11.590818 L116.217838,11.3594644 C116.320004,10.3540842 115.972836,9.35491961 115.269288,8.62949126 C114.43725,8.01948139 113.413453,7.72931439 112.385079,7.81204169 C111.087743,7.84627966 109.803169,8.0777111 108.575455,8.49839086 C108.408971,8.5397674 108.238026,8.56048805 108.066477,8.56008516 C107.834484,8.54188527 107.618713,8.434 107.464958,8.25932541 C107.232902,8.00666296 107.118109,7.66788255 107.148774,7.32619901 C107.178391,6.89687331 107.474786,6.53255474 107.889106,6.41620798 Z M108.775962,15.9479785 C108.775962,17.4903362 109.786206,18.261515 111.806695,18.261515 C112.685418,18.268597 113.550287,18.0424005 114.313026,17.606013 C115.023267,17.2146349 115.666329,16.7121616 116.217838,16.1176378 L116.217838,13.7038481 L113.094563,13.7038481 C112.013889,13.6584814 110.935334,13.8343041 109.925018,14.2205379 C109.213158,14.4928287 108.751944,15.186197 108.775962,15.9479785 Z" id="Shape"></path>
                    <path d="M129.206271,18.261515 C129.573031,18.2800412 129.940349,18.2383597 130.293633,18.1381264 C130.518771,18.0466999 130.760174,18.0020929 131.003117,18.007026 C131.265518,18.0058626 131.517752,18.1084192 131.70489,18.2923622 C131.928067,18.5192146 132.043198,18.8309113 132.021073,19.1483707 C132.029807,19.5198461 131.799975,19.8552753 131.450401,19.9812438 C130.796807,20.3180185 130.079283,20.5125121 129.345083,20.5519162 C128.814372,20.5533057 128.283999,20.5249848 127.756454,20.4670865 C127.268485,20.4090949 126.799562,20.2431278 126.383756,19.9812438 C125.306367,19.2877898 124.710154,18.0476675 124.841398,16.7731398 L124.841398,7.89687136 L122.813198,7.89687136 C122.663393,7.92040199 122.511307,7.8714746 122.403322,7.7650107 C122.295337,7.6585468 122.244258,7.50717003 122.265661,7.35704617 C122.276222,7.16409705 122.372372,6.98593726 122.527862,6.8712035 L126.383756,3.0692918 C126.507798,2.92493157 126.680844,2.83154196 126.869599,2.80709099 C127.016394,2.8063013 127.156595,2.86798993 127.255188,2.97675034 C127.358995,3.08445048 127.41704,3.22817979 127.417136,3.37776333 L127.417136,5.69129987 L130.648375,5.69129987 C131.068627,5.65630933 131.472821,5.86072168 131.693704,6.21995166 C131.914587,6.57918164 131.914587,7.03212495 131.693704,7.39135493 C131.472821,7.75058491 131.068627,7.95499726 130.648375,7.92000672 L127.417136,7.92000672 L127.417136,16.5417862 C127.347591,17.1203676 127.598849,17.6908718 128.072638,18.0301614 C128.424822,18.2020479 128.814897,18.2816551 129.206271,18.261515 Z" id="Shape"></path>
                    <path d="M140.02771,16.9659346 C140.983328,17.7777925 142.215457,18.1894231 143.467167,18.114991 C144.739315,18.1497697 146.001882,17.8856344 147.153402,17.3438122 C147.42637,17.1939721 147.729372,17.1070238 148.040258,17.0893232 C148.310665,17.1004028 148.566874,17.213355 148.757454,17.4055065 C148.967076,17.5823942 149.090651,17.8407775 149.096773,18.114991 C149.125883,18.5638725 148.886835,18.9875023 148.487542,19.1946414 C148.071105,19.4105715 147.716363,19.5956544 147.384756,19.7498902 C147.040738,19.9104557 146.684962,20.0445164 146.320529,20.1509032 C145.352982,20.4122857 144.353597,20.5368842 143.35149,20.521069 C141.334404,20.647034 139.35516,19.9323845 137.883832,18.5468512 C136.588252,17.2358472 135.940462,15.3618826 135.940462,12.940381 C135.870735,11.060575 136.444783,9.21328337 137.567649,7.70407665 C138.827313,6.13744089 140.766138,5.2757409 142.773106,5.39054012 C144.705735,5.30224524 146.572451,6.10348419 147.839751,7.56526446 C149.019941,8.9695528 149.640523,10.7599057 149.582615,12.5933505 C149.591334,12.9342929 149.463645,13.2646199 149.227873,13.5110533 C148.975679,13.7639214 148.628332,13.8983785 148.271611,13.8812192 L138.570182,13.8812192 C138.663687,15.0527699 139.182028,16.1497874 140.02771,16.9659346 Z M142.773106,7.58839982 C141.190245,7.5170751 139.721397,8.40996391 139.056024,9.84795383 C138.754931,10.4417993 138.589015,11.0949287 138.570182,11.7604774 L147.006878,11.7604774 C146.988272,10.5322578 146.450273,9.36939672 145.526215,8.56008516 C144.757974,7.91083692 143.77868,7.56520363 142.773106,7.58839982 Z" id="Shape"></path>
                </g>
            </g>
        </g>
    </g>
</svg>